inDegrees=yes
name=ik_S53_A09_T01
DataType=double
version=3
OpenSimVersion=4.3-2021-08-27-4bc7ad9
endheader
time	pelvis_tilt	pelvis_list	pelvis_rotation	pelvis_tx	pelvis_ty	pelvis_tz	hip_flexion_r	hip_adduction_r	hip_rotation_r	knee_angle_r	knee_angle_r_beta	ankle_angle_r	subtalar_angle_r	mtp_angle_r	hip_flexion_l	hip_adduction_l	hip_rotation_l	knee_angle_l	knee_angle_l_beta	ankle_angle_l	subtalar_angle_l	mtp_angle_l	lumbar_extension	lumbar_bending	lumbar_rotation	arm_flex_r	arm_add_r	arm_rot_r	elbow_flex_r	pro_sup_r	wrist_flex_r	wrist_dev_r	arm_flex_l	arm_add_l	arm_rot_l	elbow_flex_l	pro_sup_l	wrist_flex_l	wrist_dev_l
17.27999999999972	-6.92776051919042	-2.957067565946019	20.12457053839745	0	0.9399999999999999	0	43.88770728072726	-10.34283946331412	-10.39847731188916	54.33496683332849	0.9483240702034991	0	0	0	43.88770728072726	-10.34283946331412	-10.39847731188916	54.33496683332849	0.9483240702034991	0	0	0	-4.876935761841422	-1.931086407535284	3.051491075649878	51.2151449527604	11.77780439466287	33.75076294076796	36.24005114658652	96.62122094953155	0	0	55.08076435295694	-4.461099264953354	12.01833965631859	35.20656009014531	104.3617171407787	0	0
17.29999999999972	-6.925083315557268	-2.955505188040219	20.15248208048901	0	0.9399999999999999	0	43.88794459431775	-10.34258675518648	-10.39828820489172	54.33506278053338	0.9483257447981327	0	0	0	43.88794459431775	-10.34258675518648	-10.39828820489172	54.33506278053338	0.9483257447981327	0	0	0	-4.874982469125197	-1.928508522738312	3.033389563264789	51.1586624899351	11.73120252170843	34.01856344875887	36.19086099514196	96.8054384456895	0	0	54.9264935806995	-4.328030759676288	11.98848635259714	35.31547821724367	103.6114533961011	0	0
17.31999999999972	-6.906960748740936	-2.992894796212377	20.19244166004741	0	0.9399999999999999	0	43.88848592042996	-10.34200634798647	-10.39785485608501	54.33528018370505	0.9483295391992825	0	0	0	43.88848592042996	-10.34200634798647	-10.39785485608501	54.33528018370505	0.9483295391992825	0	0	0	-4.87270537580975	-1.966776760683532	3.004589571637329	51.16795065201659	11.77656932955724	33.93509740699427	36.20291399792094	96.81505029812681	0	0	54.82332138503236	-4.319130825291613	11.85784513600333	35.46622371494517	102.6979101995054	0	0
17.33999999999972	-6.89630264309004	-2.997783053599822	20.22817196539821	0	0.9399999999999999	0	43.88903079856521	-10.34142188091306	-10.39741843550252	54.33549866631517	0.9483333524401875	0	0	0	43.88903079856521	-10.34142188091306	-10.39741843550252	54.33549866631517	0.9483333524401875	0	0	0	-4.86651975770992	-1.971032909531692	2.967184599124893	51.14459736529773	11.79118161193241	33.93003839996815	36.00051151813073	97.42604093390551	0	0	54.7231319861835	-4.255199532607713	11.57784989679845	35.53896649238704	102.0287184026719	0	0
17.35999999999972	-6.869755665505967	-3.007057856622319	20.25597644245006	0	0.9399999999999999	0	43.88932348150409	-10.34110903638745	-10.39718450328315	54.33561628110146	0.9483354052054572	0	0	0	43.88932348150409	-10.34110903638745	-10.39718450328315	54.33561628110146	0.9483354052054572	0	0	0	-4.846367844848909	-1.986707394514417	2.947426433400052	51.07930439203929	11.67703441599144	34.19521002877443	36.01734665141951	97.33662850557982	0	0	54.56529869410229	-4.166795743090923	11.43236388627541	35.58731751551543	101.4465960342965	0	0
17.37999999999972	-6.856354061329768	-3.018640876152121	20.28936208192789	0	0.9399999999999999	0	43.88966404985803	-10.34074852878103	-10.3969140508924	54.33575441308799	0.9483378160634245	0	0	0	43.88966404985803	-10.34074852878103	-10.3969140508924	54.33575441308799	0.9483378160634245	0	0	0	-4.838597574064158	-2.00094250484343	2.935402259461913	51.08391419647288	11.68705077399881	34.2097665768473	36.01219580568566	97.26807185296717	0	0	54.45856793436962	-4.075244142805113	11.39329924344398	35.62255123482429	100.5498980324866	0	0
17.39999999999972	-6.837028596745779	-3.032592723213145	20.35565628793279	0	0.9399999999999999	0	43.89002773263589	-10.34036209050777	-10.39662445120473	54.33590123180257	0.9483403785333976	0	0	0	43.89002773263589	-10.34036209050777	-10.39662445120473	54.33590123180257	0.9483403785333976	0	0	0	-4.825466351987486	-2.020713307379742	2.935431658670749	51.06900524740631	11.66534578890933	34.26624997265536	35.8533198147763	97.57923129510449	0	0	54.34829469212821	-4.017031262289743	11.50235305774861	35.71127245711565	99.84406979959032	0	0
17.41999999999972	-6.834943789724795	-3.054230272077791	20.36778429871585	0	0.9399999999999999	0	43.89011068028159	-10.34027724839619	-10.39656004226361	54.3359359112194	0.9483409838034038	0	0	0	43.89011068028159	-10.34027724839619	-10.39656004226361	54.3359359112194	0.9483409838034038	0	0	0	-4.831076791464486	-2.041800871602251	2.93590048820933	51.0486637735485	11.69681511500259	34.33705566824872	35.83438638171206	97.57435950790766	0	0	54.28727273468166	-3.973372950896674	11.59046002543851	35.76054448518693	99.86693191767667	0	0
17.43999999999972	-6.805466082378799	-3.067551907289805	20.45189243604006	0	0.9399999999999999	0	43.89042636852823	-10.33995062631535	-10.39631304004137	54.33606651044586	0.9483432631899061	0	0	0	43.89042636852823	-10.33995062631535	-10.39631304004137	54.33606651044586	0.9483432631899061	0	0	0	-4.810547950415593	-2.060225769533405	2.894787119127337	50.98786074102337	11.6960749795928	34.35547657235694	35.76545689121527	97.43177900032192	0	0	54.23731088621786	-4.021587270685895	11.6270957755227	36.04348275523134	100.4593122789943	0	0
17.45999999999972	-6.789877631131984	-3.071575216643061	20.48930674130038	0	0.9399999999999999	0	43.89311555570858	-10.33740098613718	-10.39429924231266	54.33716380920755	0.9483624146661757	0	0	0	43.89311555570858	-10.33740098613718	-10.39429924231266	54.33716380920755	0.9483624146661757	0	0	0	-4.801761429503451	-2.066946817825878	2.890890026734958	50.95145301040841	11.67698283980375	34.40577483949858	35.74839294862695	97.35387362560814	0	0	54.24153416308476	-4.017963216617668	11.64442485977663	36.24125783862112	100.4879859938218	0	0
17.47999999999972	-6.780127917893628	-3.066779928870043	20.53451512582377	0	0.9399999999999999	0	43.89340097053802	-10.33710478482	-10.39407527599946	54.33728098506754	0.9483644597707362	0	0	0	43.89340097053802	-10.33710478482	-10.39407527599946	54.33728098506754	0.9483644597707362	0	0	0	-4.791644882728917	-2.06471035679218	2.881163711690679	50.94991751510374	11.66732202032202	34.42726301888928	35.62058883488741	97.23195724042016	0	0	54.21569256670394	-3.999095459751865	11.6532284306225	36.60228236055826	100.1683106038077	0	0
17.49999999999972	-6.778647659712676	-3.072643652909504	20.57384456445145	0	0.9399999999999999	0	43.89373396436682	-10.33675246594382	-10.39381060161977	54.33741522728469	0.9483668027394208	0	0	0	43.89373396436682	-10.33675246594382	-10.39381060161977	54.33741522728469	0.9483668027394208	0	0	0	-4.794793813709778	-2.065806556236057	2.835347332567812	50.97307391973672	11.70272458837274	34.45258496683357	35.54232939907246	97.07063518274062	0	0	54.37960001935572	-3.970813663991809	11.34054689597434	36.99637892771452	99.64625708590066	0	0
17.51999999999972	-6.744777875071608	-3.041910336889062	20.61249281230382	0	0.9399999999999999	0	43.89414606922769	-10.33632155626231	-10.39348555389977	54.33758310495809	0.9483697327575622	0	0	0	43.89414606922769	-10.33632155626231	-10.39348555389977	54.33758310495809	0.9483697327575622	0	0	0	-4.751787239231926	-2.050410855863446	2.852969160941454	50.93374112145671	11.67950636681987	34.419406330694	35.4269783027904	96.97573099484654	0	0	54.28996631530591	-3.935568458247666	11.35365131735672	37.60904247577424	99.35386258511703	0	0
17.53999999999971	-6.757034039873048	-3.021566575979944	20.54121625993902	0	0.9399999999999999	0	43.89445810406505	-10.33599241767938	-10.39323796734576	54.33770907962469	0.9483719314302684	0	0	0	43.89445810406505	-10.33599241767938	-10.39323796734576	54.33770907962469	0.9483719314302684	0	0	0	-4.753158176792861	-2.033295751871056	2.919398120110269	51.01361493023154	11.65431273303239	34.40269693182524	35.35392323645001	97.18983497634279	0	0	54.41719865226885	-3.793473370761842	11.54872706618523	38.31249362553122	98.54802201283727	0	0
17.55999999999971	-6.708679815171792	-2.999710513703782	20.48514493575301	0	0.9399999999999999	0	43.89482832762459	-10.33560013955234	-10.39294330138752	54.33785783345949	0.9483745276744607	0	0	0	43.89482832762459	-10.33560013955234	-10.39294330138752	54.33785783345949	0.9483745276744607	0	0	0	-4.700219297135354	-2.030366018713789	2.925720223600803	51.3046321763882	11.6347537109894	34.28416833987214	35.081842106008	97.40003487181259	0	0	54.30187451836365	-3.850183594243048	11.53013357592602	38.3507803339388	98.50497253664157	0	0
17.57999999999971	-6.66440863459519	-2.964288766902006	20.07127158324863	0	0.9399999999999999	0	43.89540306681671	-10.33499905957837	-10.39248969430396	54.33809135310354	0.9483786033611175	0	0	0	43.89540306681671	-10.33499905957837	-10.39248969430396	54.33809135310354	0.9483786033611175	0	0	0	-4.628964897071277	-2.048351738270819	3.294154485681471	51.17742190211679	11.66278837662388	34.34302825807361	35.02871090711741	97.38264206917123	0	0	54.23493524881302	-3.662790882903677	12.14032245336111	40.01428650767911	93.73538377896021	0	0
17.59999999999971	-6.664570232511172	-2.960308366751022	20.07194996472301	0	0.9399999999999999	0	43.89570821499807	-10.33468225616329	-10.39224999631548	54.33821611446333	0.948380780857625	0	0	0	43.89570821499807	-10.33468225616329	-10.39224999631548	54.33821611446333	0.948380780857625	0	0	0	-4.63044018341909	-2.039860331638252	3.247914823638555	51.23275507633161	11.72028474706948	34.2663398239526	34.94482456540088	97.48639855607033	0	0	54.33049445150592	-3.867288224441196	11.99609437553628	40.51595899053027	95.06806583905431	0	0
17.61999999999971	-6.644400415045931	-2.918023410571493	20.14936748837226	0	0.9399999999999999	0	43.89602679814082	-10.33434598016092	-10.3919969573779	54.33834429370621	0.948383018007446	0	0	0	43.89602679814082	-10.33434598016092	-10.3919969573779	54.33834429370621	0.948383018007446	0	0	0	-4.604468511451934	-1.991825035508774	3.095536980208786	51.17643523124934	11.78132008489984	34.20336682498942	34.86843319245983	97.64878561805398	0	0	54.59145891616464	-4.513631560208912	11.31641813867581	40.65265115326884	94.3555387668938	0	0
